<svg xmlns="http://www.w3.org/2000/svg" width="64" height="64" viewBox="0 0 64 64" fill="none">
  <rect width="64" height="64" rx="18" fill="#07101D"/>
  <path d="M32 6 50.2 16.5v21L32 48 13.8 37.5v-21L32 6Z" fill="url(#shell)"/>
  <path d="M31.8 15c10.9 0 18.7 7.3 18.7 17.6 0 4.2-1.3 7.9-3.7 10.9l4.6 4.6-5 5-5.2-5.2c-2.6 1.4-5.8 2.1-9.4 2.1-10.9 0-18.7-7.3-18.7-17.5S20.9 15 31.8 15Zm0 7c-6.1 0-10.5 4.4-10.5 10.5 0 6 4.4 10.5 10.5 10.5 1.5 0 2.9-.2 4.1-.7l-5-5 5-5 4.6 4.6c1.2-1.7 1.9-3.8 1.9-6.4 0-6.1-4.3-10.5-10.6-10.5Z" fill="url(#core)"/>
  <defs>
    <linearGradient id="shell" x1="10" y1="8" x2="56" y2="58" gradientUnits="userSpaceOnUse">
      <stop stop-color="#6C86FF"/>
      <stop offset="0.52" stop-color="#7B67FF"/>
      <stop offset="1" stop-color="#47D9FF"/>
    </linearGradient>
    <linearGradient id="core" x1="18" y1="15" x2="44" y2="48" gradientUnits="userSpaceOnUse">
      <stop stop-color="#F9FBFF"/>
      <stop offset="1" stop-color="#D5DEFF"/>
    </linearGradient>
  </defs>
</svg>
