<svg xmlns="http://www.w3.org/2000/svg" width="64" height="64" viewBox="0 0 64 64" fill="none">
  <rect width="64" height="64" rx="18" fill="#07101D"/>
  <path d="M32 6 52 17.5v22L32 58 12 39.5v-22L32 6Z" fill="url(#shell)"/>
  <path d="M31.9 15.5c7.8 0 13.8 4 16.4 10.9l-6.6 2.1c-1.5-3.8-4.9-5.8-9.6-5.8-6.3 0-10.7 4.3-10.7 10.5 0 6.4 4.3 10.6 10.9 10.6 4.4 0 7.8-1.8 10.4-5.4H31.5v-5.9h19.7c0 8.8-7.2 17.6-19.3 17.6-10.8 0-18.7-7.4-18.7-17.5s7.8-17.1 18.7-17.1Z" fill="url(#core)"/>
  <path d="m43.4 43.6 7.2 7.1" stroke="#F9FBFF" stroke-width="4" stroke-linecap="round"/>
  <defs>
    <linearGradient id="shell" x1="10" y1="8" x2="56" y2="58" gradientUnits="userSpaceOnUse">
      <stop stop-color="#6C86FF"/>
      <stop offset="0.52" stop-color="#7B67FF"/>
      <stop offset="1" stop-color="#47D9FF"/>
    </linearGradient>
    <linearGradient id="core" x1="18" y1="15" x2="44" y2="48" gradientUnits="userSpaceOnUse">
      <stop stop-color="#F9FBFF"/>
      <stop offset="1" stop-color="#D5DEFF"/>
    </linearGradient>
  </defs>
</svg>
